# xmcd
#
# Track frame offsets:
#	150
#	12037
#	23127
#	33917
#	44937
#	58117
#	70637
#	81645
#	94912
#	107497
#	118295
#	132175
#	143527
#	160197
#	169615
#	181197
#
# Disc length: 2573 seconds
#
# Revision: 3
# Processed by: cddbd v1.5.2PL0 Copyright (c) Steve Scherf et al.
# Submitted via: EZCDAudioConverter 2.1.5.1
#
DISCID=d40a0b10
DTITLE=Williams Andy - 16 Most Requested Songs
DYEAR=1986
DGENRE=Oldies - Evergreens - Easy Listening
TTITLE0=Andy Williams - Canadian Sunset
TTITLE1=The Hawaiian Wedding Song
TTITLE2=Can't Get Used To Losing You
TTITLE3=Red Roses For A Blue Lady
TTITLE4=Dear Heart
TTITLE5=Moon River
TTITLE6=Born Free
TTITLE7=Danny Boy
TTITLE8=Days Of Wine And Roses
TTITLE9=Emily
TTITLE10=Sweet Memories
TTITLE11=More
TTITLE12=Maria
TTITLE13=What Now My Love
TTITLE14=Love Theme From "Romeo And Juliet" (A Time For Us)
TTITLE15=The Impossible Dream (The Quest)
EXTD=
EXTT0=
EXTT1=
EXTT2=
EXTT3=
EXTT4=
EXTT5=
EXTT6=
EXTT7=
EXTT8=
EXTT9=
EXTT10=
EXTT11=
EXTT12=
EXTT13=
EXTT14=
EXTT15=
PLAYORDER=
